<svg width="6" height="46" viewBox="0 0 6 46" fill="none" xmlns="http://www.w3.org/2000/svg">
<path d="M3 0.333333C1.52724 0.333333 0.333333 1.52724 0.333333 3C0.333333 4.47276 1.52724 5.66667 3 5.66667C4.47276 5.66667 5.66667 4.47276 5.66667 3C5.66667 1.52724 4.47276 0.333333 3 0.333333ZM3 40.3333C1.52724 40.3333 0.333332 41.5272 0.333332 43C0.333331 44.4728 1.52724 45.6667 3 45.6667C4.47276 45.6667 5.66666 44.4728 5.66666 43C5.66667 41.5272 4.47276 40.3333 3 40.3333ZM2.5 3L2.5 43L3.5 43L3.5 3L2.5 3Z" fill="black"/>
</svg>
